<svg xmlns="http://www.w3.org/2000/svg" width="24" height="24" viewBox="0 0 24 24"><defs><style>.a,.b{fill:#fff;}.b{stroke:#707070;opacity:0;}.c{stroke:none;}.d{fill:none;}</style></defs><g transform="translate(-30.479 -299.479)"><path class="a" d="M11.483,7.853a3.63,3.63,0,1,0,3.63,3.63A3.629,3.629,0,0,0,11.483,7.853ZM19.6,10.576A8.163,8.163,0,0,0,12.391,3.37V1.5H10.576V3.37A8.163,8.163,0,0,0,3.37,10.576H1.5v1.815H3.37A8.163,8.163,0,0,0,10.576,19.6v1.87h1.815V19.6A8.163,8.163,0,0,0,19.6,12.391h1.87V10.576Zm-8.114,7.261a6.353,6.353,0,1,1,6.353-6.353A6.348,6.348,0,0,1,11.483,17.836Z" transform="translate(30.996 299.996)"/><g class="b" transform="translate(30.479 299.479)"><rect class="c" width="24" height="24"/><rect class="d" x="0.5" y="0.5" width="23" height="23"/></g></g></svg>